<svg class="animated" id="freepik_stories-schizophrenia" xmlns="http://www.w3.org/2000/svg" viewBox="0 0 500 500" version="1.1" xmlns:xlink="http://www.w3.org/1999/xlink" xmlns:svgjs="http://svgjs.com/svgjs"><style>svg#freepik_stories-schizophrenia:not(.animated) .animable {opacity: 0;}svg#freepik_stories-schizophrenia.animated #freepik--Ghosts--inject-442 {animation: 6s Infinite  linear floating;animation-delay: 0s;}            @keyframes floating {                0% {                    opacity: 1;                    transform: translateY(0px);                }                50% {                    transform: translateY(-10px);                }                100% {                    opacity: 1;                    transform: translateY(0px);                }            }        .animator-hidden { display: none; }</style><g id="freepik--background-complete--inject-442" class="animable" style="transform-origin: 256.219px 219.653px;"><path d="M112.05,346.3c-1.56,2.75-2.78,5.86-2.46,9s2.59,6.26,5.72,6.69a7.76,7.76,0,0,0,6.28-2.51,26,26,0,0,0,3.89-5.8c5.36-9.64,13.15-17.44,20.58-25.6A37,37,0,0,0,112.05,346.3Z" style="fill: rgb(235, 235, 235); transform-origin: 127.799px 345.015px;" id="elg3vajkt5nto" class="animable"></path><path d="M452.24,213.44c-8.7-4.29-19.4-.24-26.81,6s-12.88,14.58-20.3,20.83a50.83,50.83,0,0,1-48.79,8.85l-2.3.23a125.07,125.07,0,0,0,32.06,21.27c14,6.41,29.92,10.22,44.73,6.11,16.78-4.66,30.06-20,32.29-37.25C464.41,229.53,461.26,217.89,452.24,213.44Z" style="fill: rgb(235, 235, 235); transform-origin: 408.718px 245.05px;" id="elv3jwrrufnve" class="animable"></path><path d="M91.1,193.18a62.71,62.71,0,0,1-37.53-82.61c3.76-9.36,11.82-18.77,21.86-17.76,9.6,1,15.73,11.13,17,20.69,1.87,13.8-3,27.49-5.86,41.11s-3.45,29.23,5.41,40" style="fill: rgb(235, 235, 235); transform-origin: 70.9439px 143.673px;" id="elrr4u5a1l7n" class="animable"></path><path d="M270.8,104.46c1.57-3.5,6.51-4.68,10.13-6s7.48-2.17,10.53-4.5c5.61-4.29,6.82-12,9.1-18.73,1.53-4.53,3.84-9,7.59-11.93s9.18-4.14,13.42-2c4.83,2.5,6.8,8.35,7.58,13.73,1.05,7.27.52,15.37-4.29,20.92-6.16,7.12-16.93,7.62-26.3,6.69s-19.41-2.63-27.76,1.73" style="fill: rgb(235, 235, 235); transform-origin: 300.201px 82.3371px;" id="elwtjqovrk3ah" class="animable"></path><path d="M408,307.57a59.69,59.69,0,0,0-30.43-30.69c7.62,6.84,12.24,23.85,11.22,34s-12.14,19.11-21,24.28c-3.75,2.19-8,3.65-11.31,6.42-8.7,7.17-8.36,22-.5,30.09s21.12,9.39,31.4,4.76,17.69-14.27,21.65-24.83A59.79,59.79,0,0,0,408,307.57Z" style="fill: rgb(235, 235, 235); transform-origin: 381.377px 327.986px;" id="eli8fq2fzbtj" class="animable"></path></g><g id="freepik--Ghosts--inject-442" class="animable" style="transform-origin: 240.543px 178.527px;"><path d="M101.53,203.82c-32.91-13.19-43.25,29.61-43.25,29.61-6.87,22.66-7.93,47.67,1.72,67.23,6,12.06,22.13,24.23,35.57,23.79,7.93-.27,15-4.86,21.32-9.66s12.58-10.11,20.22-12.25,17.18,0,20.79,7.06A17,17,0,0,0,146.29,292c-7-2.12-14.56-3.41-21.78-2.26-12,1.91-23.81-2.1-22.23-17.08,0,0,.94-10.68,4.21-18.85S123.54,212.65,101.53,203.82Z" style="fill: rgb(69, 90, 100); transform-origin: 105.453px 262.879px;" id="el1h6lezdlt48" class="animable"></path><path d="M80.88,214c-4.07,1.51-6.87,5.85-8.76,9.76a6.45,6.45,0,0,0-.88,3.42,2.4,2.4,0,0,0,2.31,2.25c1.5-.13,2.13-1.93,2.65-3.35a13.78,13.78,0,0,1,5-6.48,12.47,12.47,0,0,0,2.29-1.72,2.66,2.66,0,0,0,.71-2.63,2.57,2.57,0,0,0-2.87-1.35,7.41,7.41,0,0,0-3,1.59" style="fill: rgb(38, 50, 56); transform-origin: 77.7685px 221.632px;" id="ele1bxu8757pi" class="animable"></path><path d="M95.13,215.73c-4.08,1.51-6.88,5.85-8.77,9.77a6.39,6.39,0,0,0-.88,3.41,2.41,2.41,0,0,0,2.31,2.25c1.51-.13,2.13-1.93,2.66-3.35a13.69,13.69,0,0,1,5-6.47,13.06,13.06,0,0,0,2.29-1.72,2.69,2.69,0,0,0,.72-2.64,2.58,2.58,0,0,0-2.88-1.35,7.37,7.37,0,0,0-3,1.59" style="fill: rgb(38, 50, 56); transform-origin: 92.0167px 223.362px;" id="el1jk2acp2gv9" class="animable"></path><path d="M79.36,233.11a7.69,7.69,0,0,0-6.82,3.22,19.62,19.62,0,0,0-3.09,7.22c-.23.84-.36,1.92.34,2.43a1.88,1.88,0,0,0,2-.13c2-1.1,3.11-3.31,4.85-4.79a2.87,2.87,0,0,1,1.08-.63,1.29,1.29,0,0,1,1.19.2,2.06,2.06,0,0,1,.53,1.12c.21.86.41,1.72.61,2.58A3.78,3.78,0,0,0,81.56,247a2.56,2.56,0,0,0,2.92-.79,4.79,4.79,0,0,0,1.11-2.79,11.06,11.06,0,0,0-.25-3A11.51,11.51,0,0,0,83.05,235a5.17,5.17,0,0,0-5.35-1.75" style="fill: rgb(38, 50, 56); transform-origin: 77.4362px 240.124px;" id="elc6i9mml1h69" class="animable"></path><path d="M345.11,267.23C337.05,257,324.74,250.57,311.94,248c-18.46-3.76-37.62-.15-56.41-1.63-35.73-2.81-69.06-25.68-85.19-57.6-9.26-30.74.07-40.87,10.36-52.32s23.66-19.75,37.49-26.54c10.1-5,22.06-10.11,31.17-16.72a23.47,23.47,0,0,0,4.76-4.9A34.56,34.56,0,0,0,261,70.72c1.8-18.84-12.33-35.49-31.15-37.56l-.82-.09c-13.66-1.59-21.07,1.12-30.89,3.28a117.9,117.9,0,0,0-77.67,58.87c-15.76,29.58-21.19,65.1-8.91,96.29,5.13,13,23.32,47.13,35.16,54.55h0c14,13.27,31.78,22.48,50.44,27.54,23.89,6.48,49.14,6.58,73.72,3.64,12.11-1.45,24.37-3.62,36.43-1.78s24.21,8.65,28.6,20-2.46,26.82-14.59,28.13c13,1.7,26-7.3,30.58-19.53S353.18,277.5,345.11,267.23Z" style="fill: rgb(69, 90, 100); transform-origin: 229.404px 178.194px;" id="elzca0utkvns" class="animable"></path><path d="M313.28,145.47c-3.08-2.37-14.5-7.05-14.5-7.05s12.73-2.41,18.75,1.94,15.12,11.07,15.12,11.07-6.29-11-13.08-13.87c-4.91-2.09-11.88-4.56-15.37-5.77a3.64,3.64,0,0,0-3.53.63,16.49,16.49,0,0,1-9.89,3.41c-8.19.42-24.33-8-35.57-5.16s-32.2,35.79-40.47,36S188.35,122,188.35,122l-8.74,14c.81,1,23.37,60.3,39.44,50.35s24-39.3,34.4-41,22.47,6,24.05,7.9,5.92,2.91,5.14,6.71-3.17,21-3.17,21,10.63-22.87,8.59-25.63a17.57,17.57,0,0,1-2.59-6.94s4.9,1.68,6.49,5.93,11.34,22.15,11.34,22.15-2.43-20.64-6.23-24.94-6.49-6.81-6.49-6.81l6.6-1.14,13.59,4.6,11.55,13.28S316.36,147.83,313.28,145.47Z" style="fill: rgb(69, 90, 100); transform-origin: 256.13px 154.737px;" id="ele334kwz6p2k" class="animable"></path><path d="M217.93,96.6c-.3-1.58-2-2.47-3.64-2.61s-3.21.23-4.8,0c-3.13-.36-5.72-2.87-6.85-5.81a17,17,0,0,1-.41-9.31,10.68,10.68,0,0,0,.36-3.5,3.06,3.06,0,0,0-2-2.65,2,2,0,0,0-1.8.53h0c-.76.62-.76.62-.85.8C194.24,79.18,194,87.6,197.15,93a16.43,16.43,0,0,0,16.31,7.8,6.84,6.84,0,0,0,3.17-1.19A3.19,3.19,0,0,0,217.93,96.6Z" style="fill: rgb(38, 50, 56); transform-origin: 206.46px 86.8161px;" id="elv00hym4h6jd" class="animable"></path><path d="M215.23,57.71s-13.34,11.56-6.89,16.41,7.95,3.5,7.95,3.5Z" style="fill: rgb(38, 50, 56); transform-origin: 211.434px 67.7513px;" id="eljjo17ksb65" class="animable"></path><path d="M237.11,93.69S222.5,98.4,220.9,91.3c-1.14-5.07,1.8-7.15,1.8-7.15Z" style="fill: rgb(38, 50, 56); transform-origin: 228.874px 89.6857px;" id="elt7jpsoo7mx8" class="animable"></path><path d="M426.91,142.84c-2-15.24-5.82-30.64-14.55-43.29S389.21,77.42,373.85,77.8s-30.49,12.69-31.07,28.05c-.43,11.38,6.46,21.6,13.15,30.82s13.79,19.2,13.87,30.59S359,190.6,348.21,186.91c-6-2-9.73-8-15-11.48-10.11-6.75-25.79-2.31-30.87,8.72,1.26-1.89,10.75-7.26,19.31-4.48,22.94,7.45,18.54,26.27,36.64,34.2,21.88,9.59,50.27.23,62.17-20.49C429.06,178.38,429.15,160,426.91,142.84Z" style="fill: rgb(69, 90, 100); transform-origin: 365.242px 147.716px;" id="elnf3tkiw9b4" class="animable"></path><path d="M394.08,110.22c-7.34.89-11.11,5.27-12.5,11.67a4.23,4.23,0,0,0,.09,2.65,2.65,2.65,0,0,0,2.39,1.61c1.35-.09,1.75-1.52,2-2.67a9.59,9.59,0,0,1,4.36-6.4,8.52,8.52,0,0,1,8.64.33c1.14.77,2.22,1.9,3.55,1.94a2,2,0,0,0,2.07-2.13,5.16,5.16,0,0,0-1.66-3.11A13.12,13.12,0,0,0,394.08,110.22Z" style="fill: rgb(38, 50, 56); transform-origin: 393.047px 118.185px;" id="elxdjfttu3y39" class="animable"></path><path d="M381.08,87.73c5.72,1.27,10.26,6.56,13.5,11.44a8.61,8.61,0,0,1,1.8,4.4c0,1.6-1.07,3.35-2.67,3.43-2,.1-3.2-2.19-4.16-4a18.52,18.52,0,0,0-7.92-7.73,17.32,17.32,0,0,1-3.37-1.88A3.63,3.63,0,0,1,376.82,90a3.47,3.47,0,0,1,3.59-2.33,10,10,0,0,1,4.33,1.57" style="fill: rgb(38, 50, 56); transform-origin: 386.585px 97.3297px;" id="eliw6t0fu525" class="animable"></path><path d="M365.07,93.3c5.72,1.27,10.26,6.56,13.5,11.44a8.64,8.64,0,0,1,1.8,4.4c0,1.6-1.07,3.35-2.67,3.43-2,.1-3.2-2.19-4.16-4a18.58,18.58,0,0,0-7.92-7.73A16.81,16.81,0,0,1,362.25,99a3.63,3.63,0,0,1-1.44-3.39,3.46,3.46,0,0,1,3.59-2.33,10,10,0,0,1,4.33,1.57" style="fill: rgb(38, 50, 56); transform-origin: 370.575px 102.919px;" id="el5vyuw4d8jl3" class="animable"></path></g><g id="freepik--Floor--inject-442" class="animable animator-active animator-hidden" style="transform-origin: 250.98px 450.825px;"><path d="M439.43,450.82c0,.15-84.38.27-188.44.27S62.53,451,62.53,450.82s84.36-.26,188.46-.26S439.43,450.68,439.43,450.82Z" style="fill: rgb(38, 50, 56); transform-origin: 250.98px 450.825px;" id="el8mdp7fyk3dg" class="animable"></path></g><g id="freepik--Character--inject-442" class="animable animator-hidden" style="transform-origin: 246.086px 324.224px;"><path d="M301.83,278.61q-2.9-9.19-5.78-18.38c-1.52-4.82-2.92-10.47,0-14.59,1.13-1.6,2.86-2.84,3.45-4.71.77-2.44-.67-5-1.39-7.41-1.59-5.46.41-11.23,1.39-16.83s.4-12.42-4.44-15.42c-2.35-1.45-5.33-1.72-7.52-3.41-3.11-2.4-3.65-6.78-5.17-10.41a18.28,18.28,0,0,0-24.31-9.61l-4,3c-5.23,14.95-5.75,31.12-5.15,46.95s2.23,31.68,1.11,47.48c-.43,6-1.09,12.64,2.47,17.5,3.23,4.41,9,6,14.37,7A59.86,59.86,0,0,0,283.18,301a26.8,26.8,0,0,0,15-5.81,13.56,13.56,0,0,0,5-8.25C303.55,284.15,302.68,281.33,301.83,278.61Z" style="fill: rgb(38, 50, 56); transform-origin: 275.99px 238.682px;" id="eli4q30sjrhdt" class="animable"></path><path d="M293.88,276.88l30.44-27.2s-24.62,1.83-39.57,3.5l-1.61-13.89s31.2-7.16,41.18-9.72,19.61-2.66,29.07-3,11.08,5,11.59,7.34,1.22,13.77-7.85,24.6c-6.88,8.21-43.56,47.26-43.56,47.26Z" style="fill: rgb(255, 190, 157); transform-origin: 324.192px 266.162px;" id="elh6xpo8g5b34" class="animable"></path><path d="M348.6,243a4.1,4.1,0,0,1-.72.78,12.32,12.32,0,0,1-.93.83,16.31,16.31,0,0,1-1.31,1,26.3,26.3,0,0,1-3.69,2.24,27.22,27.22,0,0,1-10.15,2.77,26.31,26.31,0,0,1-4.31,0,15.81,15.81,0,0,1-1.64-.21c-.49-.07-.9-.16-1.23-.24a4,4,0,0,1-1-.31c0-.09,1.5.25,3.92.4a29.35,29.35,0,0,0,4.24-.07,28.67,28.67,0,0,0,10-2.73,29.9,29.9,0,0,0,3.69-2.1C347.44,244,348.53,242.91,348.6,243Z" style="fill: rgb(235, 153, 110); transform-origin: 336.11px 246.852px;" id="el72recjohiip" class="animable"></path><path d="M133.61,223.33a20.4,20.4,0,0,0-6.22,10.26c-2.77,10.12,7.81,19.77,7.81,19.77s45.89,43.85,46.2,44.47,11.5-32.65,11.5-32.65l-27.67-19.59s15,.44,23.63.63a202.43,202.43,0,0,1,22,2.21v-17.1S148.53,216.18,133.61,223.33Z" style="fill: rgb(255, 190, 157); transform-origin: 168.894px 259.626px;" id="el4yjdghrkwq3" class="animable"></path><path d="M139.1,244.69s.05-.1.21-.25a3.29,3.29,0,0,1,.78-.5,5.3,5.3,0,0,1,3.35-.22c1.42.29,2.93,1.07,4.7,1.56a23.89,23.89,0,0,0,5.9.86c4.27.09,8.14-.44,10.94-.61,1.41-.11,2.54-.18,3.33-.2a5.14,5.14,0,0,1,1.23,0,6.27,6.27,0,0,1-1.21.19l-3.31.36a86,86,0,0,1-11,.77,23.1,23.1,0,0,1-6-.92c-1.81-.54-3.3-1.34-4.64-1.66a5.44,5.44,0,0,0-3.2,0A7.73,7.73,0,0,0,139.1,244.69Z" style="fill: rgb(235, 153, 110); transform-origin: 154.32px 245.098px;" id="elyx03dmthmfm" class="animable"></path><path d="M359.35,258.47l-35-8.79-29.88,21.1s-5.06-3-8.05-1.66a78.54,78.54,0,0,0-8.72,5.53l-10-5.25-37.54,2.76-7,6.07s-1.46-3.58-3.73-1.93a6.09,6.09,0,0,1-4.15,1.38s-2.25-6.35-6.94-8.83-14.85-6.3-16.56-5.89-13.7-11-13.7-11l-7.48-5.57s-38.09,4.24-38.64,7,9,17,10.91,17l6.4,2.1s1.72,7.73,7.49,13,25.36,18.68,25.36,18.68-8.94,55.84-13.17,66.05-7.53,23.47-6.43,36.16,6.43,49.13,6.43,49.13l28.35-8.83,111.78-3.31,21.25,5s-1.38-29.81-2.48-45.82-2.49-49.41-7.18-69.28-3.59-29.07-3.59-29.07,34.51-32.76,37.27-37.17S360.48,261.57,359.35,258.47Z" style="fill: #906464; transform-origin: 245.756px 350.95px;" id="elwo8brqyxmph" class="animable"></path><g id="elgg6m39dnuh"><g style="opacity: 0.3; transform-origin: 299.97px 367.675px;" class="animable" id="elz6vxl2qyu4e"><path d="M297.19,335s12.17,21.42,13.13,33.56-9.84,31.79-9.84,31.79l-10.92-15.8Z" id="ela7fpnox5jl" class="animable" style="transform-origin: 299.97px 367.675px;"></path></g></g><g id="elw4votb6fdvb"><g style="opacity: 0.3; transform-origin: 194.514px 393.75px;" class="animable" id="elui1hd6eao2s"><path d="M208.11,333.34c-10.92,10.06-17.24,24-23.09,37.68-5.65,13.17-11.18,26.56-13.57,40.69a95.66,95.66,0,0,0,2.45,42.45l45-16.6L215.11,382Z" id="elhphp7c191lm" class="animable" style="transform-origin: 194.514px 393.75px;"></path></g></g><polygon points="201.39 402.8 215.11 382.04 289.56 384.57 300.48 400.37 250.89 432.03 201.39 402.8" style="fill: rgb(38, 50, 56); transform-origin: 250.935px 407.035px;" id="ell8x7binmmf" class="animable"></polygon><path d="M234.27,281.27l-8.71,14.29s0,11.32-2,16.12-15.69,22-15.69,22L215.11,382s32.72,26.17,74.45,2.53L297.19,335s-7.5-10.36-13.13-15.53-9-18.05-10-25.19L270.38,283S244.15,292.62,234.27,281.27Z" style="fill: #906464; transform-origin: 252.53px 337.844px;" id="elbes5zyr1yw" class="animable"></path><path d="M269.66,343.3c-1.17-.84-3.56-.74-5-.87-5.12-1.16-9.69-5-15-5.13-2.91-.05-5.7,1.05-8.39,2.14-3.49,1.4-7,2.8-10.37,4.41a7.89,7.89,0,0,0-2.52,1.64,2.54,2.54,0,0,0,1.68,4.47,7.8,7.8,0,0,0,3.05-.45c5.1-1.52,10.21-3.65,15.52-3.31,5.65.36,10.81,3.5,16.45,4a8.22,8.22,0,0,0,3.85-.39,3.59,3.59,0,0,0,.73-6.54Zm-5-.87,2.29.31A12.5,12.5,0,0,1,264.66,342.43Z" style="fill: rgb(245, 245, 245); transform-origin: 249.475px 343.787px;" id="el6z2hsdzgaar" class="animable"></path><path d="M244.6,337.87a3.51,3.51,0,0,1-.78.59,20.91,20.91,0,0,1-2.3,1.36,31.36,31.36,0,0,1-17.12,3.39,20.66,20.66,0,0,1-2.65-.38,3.89,3.89,0,0,1-.95-.25c0-.09,1.39.15,3.62.26a35.19,35.19,0,0,0,16.94-3.35C243.38,338.53,244.55,337.79,244.6,337.87Z" style="fill: rgb(38, 50, 56); transform-origin: 232.7px 340.596px;" id="elw023wdd07x" class="animable"></path><path d="M234.44,382.87a11.06,11.06,0,0,1-3.88-3.75,10.89,10.89,0,0,1-2.1-5,47.66,47.66,0,0,0,2.53,4.67A50.29,50.29,0,0,0,234.44,382.87Z" style="fill: rgb(38, 50, 56); transform-origin: 231.45px 378.495px;" id="el9i3brcvuig8" class="animable"></path><path d="M265.31,350.91a7.19,7.19,0,0,1-1.29-.42c-.81-.3-2-.73-3.45-1.22a47.63,47.63,0,0,0-11.72-2.54,29.07,29.07,0,0,0-6.57.35l-1.45.3c-.46.12-.9.27-1.34.39a20.7,20.7,0,0,0-2.36.85,26.06,26.06,0,0,0-3.24,1.65,6.89,6.89,0,0,1-1.19.64,6.16,6.16,0,0,1,1.08-.81,20.58,20.58,0,0,1,3.2-1.82,20.79,20.79,0,0,1,2.38-.92c.44-.14.89-.3,1.36-.42l1.48-.33a27.29,27.29,0,0,1,6.69-.4,43.26,43.26,0,0,1,11.81,2.71c1.45.54,2.61,1,3.4,1.38A6.39,6.39,0,0,1,265.31,350.91Z" style="fill: rgb(38, 50, 56); transform-origin: 249.005px 348.533px;" id="elzp7p3uhp8ug" class="animable"></path><path d="M224.86,297.29a11.34,11.34,0,0,1-.14-1.61c-.06-1-.16-2.52-.37-4.36a22.34,22.34,0,0,0-.44-3,3.13,3.13,0,0,0-.75-1.37,2.23,2.23,0,0,0-1.47-.61,6,6,0,0,0-3.43,1.2,7.37,7.37,0,0,1-3.92,1.55h-.5l.29-.41.08-.11a73.92,73.92,0,0,1,9.51-11.09c1.35-1.29,2.5-2.28,3.3-2.94a8.13,8.13,0,0,1,1.3-1,10.48,10.48,0,0,1-1.16,1.13c-.77.71-1.87,1.74-3.18,3.06a83.23,83.23,0,0,0-9.35,11.12l-.07.11-.21-.41a7,7,0,0,0,3.64-1.46,6.35,6.35,0,0,1,3.73-1.24,2.63,2.63,0,0,1,1.76.76,3.31,3.31,0,0,1,.84,1.57,21.77,21.77,0,0,1,.4,3c.16,1.85.2,3.36.21,4.39A8,8,0,0,1,224.86,297.29Z" style="fill: rgb(38, 50, 56); transform-origin: 221.08px 285.415px;" id="elycd7ho0uac" class="animable"></path><path d="M215.11,323.8a5.35,5.35,0,0,1-.47.68l-1.42,1.9c-1.26,1.63-3,4-5.21,7a246.43,246.43,0,0,0-15.58,24.09c-2.74,4.89-5.18,9.64-7.24,14s-3.78,8.43-5.11,11.85c-.7,1.7-1.28,3.26-1.8,4.62s-1,2.55-1.31,3.51-.61,1.67-.82,2.22a4.6,4.6,0,0,1-.32.77,4.57,4.57,0,0,1,.22-.8c.18-.56.43-1.31.73-2.25s.72-2.17,1.23-3.55,1.05-2.94,1.72-4.65c1.3-3.45,3-7.48,5-11.92s4.46-9.2,7.22-14.1a223.51,223.51,0,0,1,15.74-24.05c2.21-2.94,4-5.3,5.34-6.89l1.5-1.83A5.58,5.58,0,0,1,215.11,323.8Z" style="fill: rgb(38, 50, 56); transform-origin: 195.47px 359.12px;" id="elpwnh8166u4a" class="animable"></path><path d="M194.85,311.38a10.28,10.28,0,0,1,.36-1.52c.13-.49.3-1.08.53-1.76s.47-1.46.81-2.3c.61-1.7,1.47-3.67,2.5-5.83s2.31-4.44,3.76-6.79a86.62,86.62,0,0,1,8.41-11.3c1.19-1.35,2.18-2.42,2.9-3.13a9,9,0,0,1,1.15-1.07,8.71,8.71,0,0,1-1,1.21c-.67.75-1.62,1.85-2.77,3.23a101.4,101.4,0,0,0-8.25,11.34c-1.44,2.33-2.7,4.61-3.77,6.73s-1.94,4.07-2.59,5.74c-.35.83-.62,1.6-.87,2.26s-.46,1.25-.61,1.73A8.61,8.61,0,0,1,194.85,311.38Z" style="fill: rgb(38, 50, 56); transform-origin: 205.06px 294.53px;" id="elccgvpq1rmxa" class="animable"></path><path d="M197.14,275.34a6.21,6.21,0,0,1-.81,1.15c-.56.72-1.34,1.77-2.28,3.09a79.08,79.08,0,0,0-11.2,22.55c-.48,1.54-.84,2.8-1.08,3.68a6.76,6.76,0,0,1-.42,1.35,8,8,0,0,1,.23-1.4c.17-.89.48-2.17.92-3.74a69.13,69.13,0,0,1,11.25-22.66c1-1.3,1.81-2.32,2.42-3A7.93,7.93,0,0,1,197.14,275.34Z" style="fill: rgb(38, 50, 56); transform-origin: 189.245px 291.25px;" id="eldyb7coxre7q" class="animable"></path><path d="M184.63,257.69s0,.14-.13.4a8.82,8.82,0,0,1-.54,1.1,13,13,0,0,1-2.89,3.44,23.25,23.25,0,0,1-5.7,3.45,60.71,60.71,0,0,1-7.7,2.64,77.9,77.9,0,0,1-14.53,2.59c-1.88.16-3.41.19-4.47.21a11.17,11.17,0,0,1-1.64,0,9.08,9.08,0,0,1,1.64-.15c1.05-.08,2.57-.17,4.44-.37a89.32,89.32,0,0,0,14.42-2.73,65.14,65.14,0,0,0,7.65-2.58,24.12,24.12,0,0,0,5.65-3.29A15.51,15.51,0,0,0,184.63,257.69Z" style="fill: rgb(38, 50, 56); transform-origin: 165.83px 264.62px;" id="elfg4q6kmxqkt" class="animable"></path><path d="M277.67,274.65a6.39,6.39,0,0,1,.57,1.25c.33.83.8,2,1.31,3.54,1.05,3,2.32,7.21,3.45,11.94.46,1.91.86,3.76,1.19,5.46l.16.8-.57-.57a18.49,18.49,0,0,0-3.63-3.05,12.06,12.06,0,0,0-1.83-.81,7.2,7.2,0,0,0-1.65-.43,2.25,2.25,0,0,0-2.11.81c-.35.43-.48.73-.52.71s0-.08.07-.22a3,3,0,0,1,.32-.6,2.6,2.6,0,0,1,.82-.73,2.49,2.49,0,0,1,1.45-.28,7.47,7.47,0,0,1,1.74.4,10.62,10.62,0,0,1,1.91.79,17.64,17.64,0,0,1,3.78,3.06l-.42.22c-.35-1.69-.76-3.53-1.22-5.44-1.12-4.71-2.33-8.92-3.29-11.95-.46-1.43-.84-2.64-1.15-3.58A7.09,7.09,0,0,1,277.67,274.65Z" style="fill: rgb(38, 50, 56); transform-origin: 279.187px 286.145px;" id="el7m78ngwnj8x" class="animable"></path><path d="M298.46,289.52a20.45,20.45,0,0,1-.57-2.71c-.32-1.67-.8-4-1.47-6.48s-1.4-4.74-2-6.35a18.24,18.24,0,0,1-.86-2.63,12,12,0,0,1,1.2,2.5,55,55,0,0,1,2.12,6.35,51.65,51.65,0,0,1,1.33,6.55A11.87,11.87,0,0,1,298.46,289.52Z" style="fill: rgb(38, 50, 56); transform-origin: 296.012px 280.435px;" id="elxu9mwrroovf" class="animable"></path><path d="M303.9,291.07c-.09,0-.24-1.23-.68-3.2a36.75,36.75,0,0,0-6.6-14.15c-1.22-1.6-2.08-2.52-2-2.58s.26.18.67.57a20.34,20.34,0,0,1,1.63,1.78,31.42,31.42,0,0,1,6.67,14.3,20.72,20.72,0,0,1,.31,2.4A2.73,2.73,0,0,1,303.9,291.07Z" style="fill: rgb(38, 50, 56); transform-origin: 299.275px 281.1px;" id="elzr0wxby8whn" class="animable"></path><path d="M319.39,281.35a6.09,6.09,0,0,1-.23,1.22c-.18.78-.42,1.9-.64,3.31a97.62,97.62,0,0,0-1.13,11c-.23,4.33-.25,8.26-.21,11.11,0,1.34.05,2.47.06,3.37a6.27,6.27,0,0,1,0,1.24,5.21,5.21,0,0,1-.18-1.23c-.08-.79-.17-1.94-.23-3.37-.13-2.85-.17-6.8.06-11.15a79.7,79.7,0,0,1,1.28-11.08c.28-1.4.58-2.53.81-3.29A5.16,5.16,0,0,1,319.39,281.35Z" style="fill: rgb(38, 50, 56); transform-origin: 318.057px 296.975px;" id="el8hfihvsm3sf" class="animable"></path><path d="M352.28,269.24a9.15,9.15,0,0,1-1.63-.18l-4.38-.69c-3.71-.6-8.82-1.46-14.45-2.45a67.8,67.8,0,0,1-7.92-1.69,20.23,20.23,0,0,1-6-2.82,13.13,13.13,0,0,1-3.19-3.14,10.34,10.34,0,0,1-.63-1c-.12-.25-.18-.39-.16-.4a15,15,0,0,0,4.18,4.27,20.82,20.82,0,0,0,5.93,2.66,72,72,0,0,0,7.87,1.63c5.63,1,10.73,1.92,14.42,2.61l4.36.85A10.69,10.69,0,0,1,352.28,269.24Z" style="fill: rgb(38, 50, 56); transform-origin: 333.098px 263.055px;" id="eltvgquseqjyf" class="animable"></path><path d="M300.48,398.87a2,2,0,0,1,.13-.27l.42-.78c.38-.67.9-1.69,1.58-3a96,96,0,0,0,4.83-11.46,61.32,61.32,0,0,0,2.23-8.27c.53-3,1-6.39,0-9.66-1.2-3.26-2.22-6.79-3.4-10.37a97.83,97.83,0,0,0-4.47-10.79A83.32,83.32,0,0,0,296.18,334a47.29,47.29,0,0,0-3.27-4.48c-1.15-1.4-2.39-2.66-3.56-4l-6.67-7.31a14.78,14.78,0,0,1-2.42-3.8c-.64-1.29-1.19-2.56-1.68-3.79a78,78,0,0,1-3.76-11.89c-.33-1.43-.53-2.56-.64-3.33l-.12-.87a1.36,1.36,0,0,1,0-.3,1.09,1.09,0,0,1,.08.29c0,.22.09.51.16.86.15.76.37,1.88.73,3.31a86.78,86.78,0,0,0,3.91,11.8c.5,1.21,1.06,2.47,1.7,3.74A14.44,14.44,0,0,0,283,318l6.69,7.26c1.16,1.28,2.43,2.56,3.59,4a47.74,47.74,0,0,1,3.31,4.52,82.45,82.45,0,0,1,5.64,10.31,95.31,95.31,0,0,1,4.48,10.85c1.18,3.61,2.19,7.1,3.37,10.37,1.05,3.45.55,6.87,0,9.9a60.48,60.48,0,0,1-2.3,8.31,87.3,87.3,0,0,1-5,11.43c-.71,1.29-1.26,2.29-1.67,2.95l-.46.75A1.35,1.35,0,0,1,300.48,398.87Z" style="fill: rgb(38, 50, 56); transform-origin: 292.373px 346.55px;" id="elrpzlmgks5zi" class="animable"></path><g id="elgic8ubg72j9"><g style="opacity: 0.3; transform-origin: 281.129px 292.93px;" class="animable" id="eld8dctlydnnt"><path d="M288.11,303A65.34,65.34,0,0,0,280,280.12c1.08,5.54,2.88,11.23,4,16.77-2.2-2.82-8.49-6.3-9.91-2.59l.55,2.95a23.3,23.3,0,0,1,10.6,7.32c.48.59,1.08,1.26,1.83,1.16C288.12,305.59,288.28,304.06,288.11,303Z" id="elsj2ssyq9o8c" class="animable" style="transform-origin: 281.129px 292.93px;"></path></g></g><g id="el9rhss9wirui"><g style="opacity: 0.3; transform-origin: 298.822px 281.991px;" class="animable" id="elhgjkyfmdn5c"><path d="M294.51,271.3c-.74,1.51,0,3.28.59,4.84A45.6,45.6,0,0,1,298,287.58a8.15,8.15,0,0,0,1.18,4.14c.89,1.16,2.86,1.61,3.77.47a3.51,3.51,0,0,0,.38-2.69,38.18,38.18,0,0,0-8-18.37" id="el93v9teq8sw9" class="animable" style="transform-origin: 298.822px 281.991px;"></path></g></g><g id="el9a9wobivkec"><g style="opacity: 0.3; transform-origin: 332.1px 264.186px;" class="animable" id="elclxa0dx0we"><path d="M315.24,258.49a8.76,8.76,0,0,0,3.46,5.41,21.07,21.07,0,0,0,5.87,2.92c7.88,2.79,16.55,4.16,24.62,2l-17.65-2.92a49.85,49.85,0,0,1-9-2.05,16.77,16.77,0,0,1-7.53-5.1" id="ele594vcbqril" class="animable" style="transform-origin: 332.1px 264.186px;"></path></g></g><g id="elz3lgep9vsue"><g style="opacity: 0.3; transform-origin: 203.484px 292.392px;" class="animable" id="elklyzay3ouf"><path d="M214.72,277.63a58.41,58.41,0,0,0-20,21,38.83,38.83,0,0,0-2.42,5.09c-.45,1.18-.6,2.89.58,3.34s2.12-.79,2.71-1.83A169.49,169.49,0,0,1,215,277.87" id="elbub3wkar92r" class="animable" style="transform-origin: 203.484px 292.392px;"></path></g></g><g id="el8zutwk4wi8"><g style="opacity: 0.3; transform-origin: 218.753px 297.835px;" class="animable" id="el4pgy3pw8j5d"><path d="M224.79,303.57q-.06-6.18-.13-12.36c0-1.87-.36-3.54-1.9-4.6-1.12-.78-2.25-.48-3.48.1s-2.45,1.39-3.44,1.83l-.27.13a17.71,17.71,0,0,0-2.86,5.93c1.45,0,2.72-.86,4-1.45s3-.86,4.07.14a4.38,4.38,0,0,1,1,2.65q.94,6.8,1.88,13.59C224.8,307.81,224.82,305.62,224.79,303.57Z" id="el64pj9mgi00u" class="animable" style="transform-origin: 218.753px 297.835px;"></path></g></g><g id="elvu12djkkl5"><g style="opacity: 0.3; transform-origin: 165.365px 267.54px;" class="animable" id="ely6w2ofvfujr"><path d="M148.31,271.63a32.72,32.72,0,0,0,24.11-.65c4.35-1.88,8.5-5,10-9.52-10.44,6.12-21.71,8.93-33.76,10" id="el8p2t0xb4vym" class="animable" style="transform-origin: 165.365px 267.54px;"></path></g></g><path d="M158.75,270.31c-.09,0-.28-1.33-.88-3.44a31.71,31.71,0,0,0-8.75-14.4c-1.6-1.49-2.71-2.29-2.65-2.36a3.26,3.26,0,0,1,.83.49,19.92,19.92,0,0,1,2.06,1.6,28.42,28.42,0,0,1,8.86,14.58,19.94,19.94,0,0,1,.48,2.57A3,3,0,0,1,158.75,270.31Z" style="fill: #906464; transform-origin: 152.618px 260.21px;" id="el68ibk7vtyfv" class="animable"></path><path d="M175.33,264c-.09,0-.35-1.18-1.08-3a23.4,23.4,0,0,0-9.74-11.43c-1.69-1-2.83-1.45-2.8-1.54a3.22,3.22,0,0,1,.83.24,15.4,15.4,0,0,1,2.15,1,21.31,21.31,0,0,1,6,4.9,21.55,21.55,0,0,1,3.89,6.72,15.22,15.22,0,0,1,.62,2.27A2.41,2.41,0,0,1,175.33,264Z" style="fill: #906464; transform-origin: 168.52px 256.015px;" id="el79wtgxm68kw" class="animable"></path><path d="M186.8,288.47a5.76,5.76,0,0,1-1.11-.51c-.7-.36-1.7-.91-2.91-1.62a102.15,102.15,0,0,1-9.19-6,104.06,104.06,0,0,1-8.48-7c-1-1-1.85-1.75-2.4-2.31a7,7,0,0,1-.82-.91,4.63,4.63,0,0,1,1,.76l2.5,2.19c2.12,1.83,5.11,4.31,8.55,6.85s6.69,4.67,9.07,6.16l2.82,1.75A5.1,5.1,0,0,1,186.8,288.47Z" style="fill: #906464; transform-origin: 174.345px 279.295px;" id="elji604txa8z" class="animable"></path><path d="M198.53,274.17c-.07.12-4.59-2.2-10.1-5.19s-9.92-5.52-9.85-5.65,4.59,2.2,10.1,5.19S198.6,274,198.53,274.17Z" style="fill: #906464; transform-origin: 188.555px 268.75px;" id="el71y4pkcx2it" class="animable"></path><path d="M203.33,292.47a22.1,22.1,0,0,0-13.14-7.65,6.67,6.67,0,0,1,2.3.21,17.16,17.16,0,0,1,5.21,2,17.43,17.43,0,0,1,4.31,3.54A6.77,6.77,0,0,1,203.33,292.47Z" style="fill: #906464; transform-origin: 196.76px 288.634px;" id="elsbtl6wcpw4g" class="animable"></path><path d="M211.49,282.34c-.1,0-.14-.92-.52-2.33A14.43,14.43,0,0,0,208.4,275a14.24,14.24,0,0,0-4.36-3.62c-1.29-.68-2.18-.93-2.16-1a6.17,6.17,0,0,1,2.33.69,13,13,0,0,1,7.12,8.91A6.19,6.19,0,0,1,211.49,282.34Z" style="fill: #906464; transform-origin: 206.709px 276.36px;" id="elphnj7z2uwud" class="animable"></path><path d="M192.4,318.65c-.08,0-.49-.66-1.32-1.64a14.87,14.87,0,0,0-3.83-3.22,15.09,15.09,0,0,0-4.68-1.76,18.76,18.76,0,0,1-2.08-.35,5.62,5.62,0,0,1,2.14,0,12.73,12.73,0,0,1,4.88,1.67,12.93,12.93,0,0,1,3.86,3.44A5.38,5.38,0,0,1,192.4,318.65Z" style="fill: #906464; transform-origin: 186.445px 315.114px;" id="elbtqe4yb3hc5" class="animable"></path><path d="M214.27,324.46a15.69,15.69,0,0,1-3-.3,70.57,70.57,0,0,1-7.21-1.51,68.61,68.61,0,0,1-7-2.24,15.31,15.31,0,0,1-2.79-1.23,22.57,22.57,0,0,1,2.92.89c1.78.58,4.26,1.35,7,2.08s5.3,1.27,7.14,1.64A21.72,21.72,0,0,1,214.27,324.46Z" style="fill: #906464; transform-origin: 204.27px 321.82px;" id="elupf8h329gm" class="animable"></path><path d="M224,304.61a3.82,3.82,0,0,1-1,.05,24.2,24.2,0,0,1-2.6-.15,35.2,35.2,0,0,1-8.37-1.94,35.64,35.64,0,0,1-7.65-3.91c-.9-.63-1.61-1.17-2.08-1.57s-.72-.63-.69-.66,1.12.76,3,1.92a40.8,40.8,0,0,0,15.87,5.8C222.67,304.46,224,304.52,224,304.61Z" style="fill: #906464; transform-origin: 212.804px 300.551px;" id="elsamuf83x7t" class="animable"></path><path d="M231.36,284.71c-.08,0-.46-.5-1.22-1.22a10.53,10.53,0,0,0-3.43-2.13,10.33,10.33,0,0,0-4-.65c-1,0-1.69.19-1.71.11a3.61,3.61,0,0,1,1.68-.48,9.13,9.13,0,0,1,7.72,2.9A3.64,3.64,0,0,1,231.36,284.71Z" style="fill: #906464; transform-origin: 226.18px 282.498px;" id="elie9pz0q5atr" class="animable"></path><path d="M195.13,349.59a3.38,3.38,0,0,1-.91-.24,24.44,24.44,0,0,1-2.38-.94,36,36,0,0,1-13.31-10.26,24.48,24.48,0,0,1-1.51-2.06,3.36,3.36,0,0,1-.47-.82c.07,0,.85,1,2.27,2.65A42.31,42.31,0,0,0,192,348.08C193.92,349,195.16,349.51,195.13,349.59Z" style="fill: #906464; transform-origin: 185.84px 342.43px;" id="elx0a42ired3c" class="animable"></path><path d="M180.47,377.27a8.48,8.48,0,0,1-1.86-1.12,49.14,49.14,0,0,1-4.09-3.23,47.61,47.61,0,0,1-3.74-3.65,7.83,7.83,0,0,1-1.35-1.7c.12-.1,2.38,2.29,5.43,5S180.56,377.14,180.47,377.27Z" style="fill: #906464; transform-origin: 174.951px 372.418px;" id="elvih7lsn5mbo" class="animable"></path><path d="M171.38,410.24a7.13,7.13,0,0,1-1.79-1.35,25,25,0,0,1-3.58-4.05,35.59,35.59,0,0,1-2.78-4.63,8.59,8.59,0,0,1-.86-2.07c.16-.08,1.65,3,4.06,6.4A58.71,58.71,0,0,0,171.38,410.24Z" style="fill: #906464; transform-origin: 166.875px 404.189px;" id="el4ybavn9dfp8" class="animable"></path><path d="M317,310.39a8.35,8.35,0,0,1-1.18.8,37.82,37.82,0,0,1-3.42,1.85,48.12,48.12,0,0,1-5.33,2.18,48.5,48.5,0,0,1-13.85,2.55,47.3,47.3,0,0,1-5.76-.14c-1.63-.15-3-.33-3.85-.51a8.6,8.6,0,0,1-1.38-.32,7,7,0,0,1,1.41.12c.91.12,2.22.25,3.85.34a53.38,53.38,0,0,0,5.71,0,57.51,57.51,0,0,0,7-.8,56.53,56.53,0,0,0,6.77-1.73,53.7,53.7,0,0,0,5.33-2.06c1.48-.67,2.67-1.25,3.47-1.69A7.07,7.07,0,0,1,317,310.39Z" style="fill: #906464; transform-origin: 299.615px 314.096px;" id="elnpn22ou1kfd" class="animable"></path><path d="M286.26,298.7a18.57,18.57,0,0,1-11.47.88c0-.16,2.6.21,5.77-.05S286.21,298.55,286.26,298.7Z" style="fill: #906464; transform-origin: 280.525px 299.392px;" id="elr1m8mgt8j7r" class="animable"></path><path d="M297.38,286.56c0,.09-.91,0-2.36.13a17.3,17.3,0,0,0-10.18,4.42c-1.07,1-1.64,1.68-1.71,1.63a6.81,6.81,0,0,1,1.46-1.9,15.1,15.1,0,0,1,4.77-3.26,15.32,15.32,0,0,1,5.64-1.26A6.85,6.85,0,0,1,297.38,286.56Z" style="fill: #906464; transform-origin: 290.255px 289.522px;" id="ellrgnljxefip" class="animable"></path><path d="M301.79,282.86c.09.1-.73.77-2,.93a2.7,2.7,0,0,1-2.16-.39c0-.15,1,0,2.1-.13S301.72,282.73,301.79,282.86Z" style="fill: #906464; transform-origin: 299.713px 283.351px;" id="el6rri77g1s6y" class="animable"></path><path d="M321.57,263.3s-.19.31-.62.79-1.06,1.16-1.88,2a57.6,57.6,0,0,1-6.91,5.74,56.56,56.56,0,0,1-7.73,4.59c-1,.5-1.89.88-2.49,1.12a3.56,3.56,0,0,1-.95.32c0-.08,1.25-.68,3.27-1.77a73.76,73.76,0,0,0,7.6-4.68,77.83,77.83,0,0,0,7-5.59C320.51,264.25,321.52,263.25,321.57,263.3Z" style="fill: #906464; transform-origin: 311.28px 270.579px;" id="elv7m9x2dajpj" class="animable"></path><path d="M340.57,268.14a6.59,6.59,0,0,1-.49,1.23,36.13,36.13,0,0,1-1.63,3.24,49.31,49.31,0,0,1-16.32,17.24,35.94,35.94,0,0,1-3.14,1.82,6.81,6.81,0,0,1-1.21.55,6.52,6.52,0,0,1,1.11-.73c.74-.43,1.78-1.09,3-1.94a56.44,56.44,0,0,0,9-7.68,55.5,55.5,0,0,0,7.16-9.45c.78-1.3,1.38-2.38,1.77-3.13A6.21,6.21,0,0,1,340.57,268.14Z" style="fill: #906464; transform-origin: 329.175px 280.18px;" id="elvcvf58ffef9" class="animable"></path><path d="M341.64,254.42a5.84,5.84,0,0,1-.39,2.13,14.75,14.75,0,0,1-6.39,8.11,6.08,6.08,0,0,1-2,.88,22.68,22.68,0,0,0,5.5-4.68A22.06,22.06,0,0,0,341.64,254.42Z" style="fill: #906464; transform-origin: 337.25px 259.98px;" id="el614gepq15cg" class="animable"></path><path d="M292.37,272.7a20.73,20.73,0,0,1-2.17,0,16.61,16.61,0,0,0-5.08.94,16.3,16.3,0,0,0-4.52,2.51c-1.05.82-1.62,1.44-1.68,1.38a5.7,5.7,0,0,1,1.44-1.66,14.05,14.05,0,0,1,9.84-3.54A5.71,5.71,0,0,1,292.37,272.7Z" style="fill: #906464; transform-origin: 285.645px 274.927px;" id="elvp2u5wok9td" class="animable"></path><path d="M279.81,283c-.1.12-1.46-1-3.42-1.8s-3.68-1.06-3.66-1.22a9.26,9.26,0,0,1,7.08,3Z" style="fill: #906464; transform-origin: 276.27px 281.493px;" id="elkbwsq5bpco" class="animable"></path><path d="M321.76,338.73a2.77,2.77,0,0,1-.62.52,19.68,19.68,0,0,1-1.87,1.18,27,27,0,0,1-14.06,3.36,17.81,17.81,0,0,1-2.2-.21,2.68,2.68,0,0,1-.8-.18c0-.09,1.16,0,3,0a32.35,32.35,0,0,0,7.13-.86,31.94,31.94,0,0,0,6.74-2.46A29.92,29.92,0,0,1,321.76,338.73Z" style="fill: #906464; transform-origin: 311.985px 341.269px;" id="elziq1nncegk" class="animable"></path><path d="M324.58,363.41a6.23,6.23,0,0,1-1.63,1.51,16.28,16.28,0,0,1-4.78,2.44,16.45,16.45,0,0,1-5.32.75,6.71,6.71,0,0,1-2.2-.31,20.92,20.92,0,0,0,13.93-4.39Z" style="fill: #906464; transform-origin: 317.615px 365.762px;" id="elfpm7dpved46" class="animable"></path><path d="M327.32,398.57a3.31,3.31,0,0,1-.94.28,22.39,22.39,0,0,1-2.63.44,32.05,32.05,0,0,1-8.81-.2,32.42,32.42,0,0,1-8.43-2.56,22.09,22.09,0,0,1-2.36-1.25,3.49,3.49,0,0,1-.81-.56c0-.08,1.26.61,3.32,1.47a36.59,36.59,0,0,0,17,2.74C325.94,398.75,327.31,398.48,327.32,398.57Z" style="fill: #906464; transform-origin: 315.33px 397.108px;" id="elcaainx7dhk" class="animable"></path><path d="M328.71,422.6a4.89,4.89,0,0,1-.92.58,26.43,26.43,0,0,1-2.67,1.29,35,35,0,0,1-19.21,2.25,25.5,25.5,0,0,1-2.9-.64,4.3,4.3,0,0,1-1-.35c0-.09,1.51.3,4,.62a38.85,38.85,0,0,0,19-2.22C327.3,423.24,328.66,422.52,328.71,422.6Z" style="fill: #906464; transform-origin: 315.36px 424.89px;" id="el5hyoskziu82" class="animable"></path><path d="M265.57,184A10,10,0,0,0,260,178.5c-2.56-.83-5.79.15-6.9,2.61l6,6.81a6,6,0,0,0,2.52,2.35,3.48,3.48,0,0,0,3.33-.18,3.57,3.57,0,0,0,1.4-2.88A7.35,7.35,0,0,0,265.57,184Z" style="fill: #906464; transform-origin: 259.725px 184.41px;" id="elu9hinwzzy1h" class="animable"></path><path d="M282.38,214.89c-1-11.54-7.14-22.77-16.92-29s-23.15-6.85-32.94-.64c-6.22,3.95-10.69,10.29-13.26,17.2s-1.46,12.63-1.4,20c0,3.82.52,14.08,3.81,16l51.43,9.23C279.69,238.15,283.42,226.44,282.38,214.89Z" style="fill: rgb(38, 50, 56); transform-origin: 250.062px 214.287px;" id="elf2m0veb16cc" class="animable"></path><path d="M280.57,206c-1.16-6.86-7.86-13.53-13.08-18.13-6-5.25-6.81-5-14.75-5.21-8.37-.21-17.52-.18-24.05,5.06-3.62,2.91-6,7.09-7.86,11.33-4.36,9.8-3.69,21-2.36,31.63s3.59,20.69,12.3,26.94L267.38,252c8.08-3,10.77-12.22,13.06-20.52S282,214.53,280.57,206Z" style="fill: rgb(38, 50, 56); transform-origin: 249.688px 220.109px;" id="elyylnl4xglb" class="animable"></path><path d="M219.73,212.87c.51-10.07,11.23-20.25,21.27-19.31l32.59,5.79,0,5.42L270.38,283c-25.74,9.83-36.11-1.75-36.11-1.75l1.81-16.49s-12.88-2-15.75-18.72C218.91,237.74,219.16,224.06,219.73,212.87Z" style="fill: rgb(255, 190, 157); transform-origin: 246.434px 240.228px;" id="elkh7mszw8ln" class="animable"></path><path d="M227.21,225.31a2.16,2.16,0,0,0,2.1,2.14,2.06,2.06,0,0,0,2.2-2,2.16,2.16,0,0,0-2.1-2.14A2.06,2.06,0,0,0,227.21,225.31Z" style="fill: rgb(38, 50, 56); transform-origin: 229.36px 225.38px;" id="elhhpqae10ujw" class="animable"></path><path d="M224,221.13c.26.27,1.88-.95,4.19-1s4,1.11,4.28.83c.12-.13-.16-.63-.9-1.16a5.87,5.87,0,0,0-3.43-1,5.65,5.65,0,0,0-3.34,1.12C224.12,220.49,223.88,221,224,221.13Z" style="fill: rgb(38, 50, 56); transform-origin: 228.234px 219.984px;" id="elxxvoogdj3im" class="animable"></path><path d="M249.24,225.31a2.15,2.15,0,0,0,2.1,2.14,2.06,2.06,0,0,0,2.19-2,2.15,2.15,0,0,0-2.1-2.14A2.05,2.05,0,0,0,249.24,225.31Z" style="fill: rgb(38, 50, 56); transform-origin: 251.385px 225.38px;" id="elh2zpjifasy6" class="animable"></path><path d="M247.15,220.56c.27.28,1.89-.94,4.2-1s4,1.11,4.27.82c.12-.12-.15-.63-.9-1.16a6,6,0,0,0-3.42-1,5.63,5.63,0,0,0-3.34,1.13C247.25,219.93,247,220.44,247.15,220.56Z" style="fill: rgb(38, 50, 56); transform-origin: 251.378px 219.41px;" id="elsez3yozme4c" class="animable"></path><path d="M237.93,237.37a15.76,15.76,0,0,0-3.77-.63c-.59-.05-1.15-.16-1.26-.57a3.09,3.09,0,0,1,.37-1.75c.54-1.44,1.11-2.94,1.7-4.52,2.35-6.44,4-11.73,3.78-11.82s-2.37,5-4.72,11.48c-.57,1.59-1.11,3.1-1.62,4.55a3.43,3.43,0,0,0-.28,2.33,1.47,1.47,0,0,0,1,.85,3.84,3.84,0,0,0,1,.12C236.46,237.51,237.92,237.51,237.93,237.37Z" style="fill: rgb(38, 50, 56); transform-origin: 235.405px 227.78px;" id="elthsi4mecx4" class="animable"></path><path d="M236.08,264.82a44.46,44.46,0,0,0,23-6.3s-5.53,11.81-22.9,10.48Z" style="fill: rgb(235, 153, 110); transform-origin: 247.58px 263.812px;" id="elcoersrpfqu6" class="animable"></path><path d="M239,242.94a4.17,4.17,0,0,1,3.72-1.59,3.75,3.75,0,0,1,2.65,1.38,2.39,2.39,0,0,1,.21,2.75,2.78,2.78,0,0,1-3,.81,8.78,8.78,0,0,1-3-1.73,2.7,2.7,0,0,1-.67-.68.77.77,0,0,1,0-.86" style="fill: rgb(235, 153, 110); transform-origin: 242.349px 243.884px;" id="el3pfurmojbm" class="animable"></path><path d="M238.81,246.52c.33.18,1.39-2.1,4.08-2.83s5,.64,5.18.33c.1-.12-.34-.69-1.35-1.19a6.25,6.25,0,0,0-4.26-.4,5.47,5.47,0,0,0-3.28,2.44C238.65,245.78,238.65,246.46,238.81,246.52Z" style="fill: rgb(38, 50, 56); transform-origin: 243.4px 244.378px;" id="elkwm02uweg8m" class="animable"></path><path d="M255.9,215.35c0-.67-2.34-1-4.84-2.14s-4.4-2.43-4.91-2c-.23.22,0,.89.64,1.73a9.22,9.22,0,0,0,7.43,3.15C255.29,216,255.91,215.67,255.9,215.35Z" style="fill: rgb(38, 50, 56); transform-origin: 250.982px 213.614px;" id="elmeyodhs6s" class="animable"></path><path d="M231.32,211.78c-.67-.26-2.17,1.06-4.24,2.08s-4,1.52-4.17,2.21c-.07.32.44.67,1.43.75a7.61,7.61,0,0,0,3.83-.88,7.43,7.43,0,0,0,2.94-2.58C231.61,212.52,231.62,211.92,231.32,211.78Z" style="fill: rgb(38, 50, 56); transform-origin: 227.212px 214.286px;" id="elm5hctia5uza" class="animable"></path><path d="M231,188.89c-6.18,4.18-10.45,11.07-12.53,18.62l1,6.21c1.45-3,1.63-6.22,4.59-9.3,2-2.07,5.67-4,9.58-5,11.17-2.84,14.94-6.9,19.87-14.2C246.3,183.39,237.17,184.71,231,188.89Z" style="fill: rgb(38, 50, 56); transform-origin: 235.99px 199.068px;" id="eliwe9np0f1b" class="animable"></path><path d="M279.24,205.28a30.74,30.74,0,0,0-24.8-21.69l-.91,1.61q-4.25,5-8.48,9.92a5.84,5.84,0,0,0-1.6,2.79,4.29,4.29,0,0,0,1.8,3.75c2.69,2.21,6.46,2.34,9.94,2.44s7.28.38,9.81,2.76c3.16,3,3.09,8,2,12.2a52.27,52.27,0,0,0-1,15.28c.39,3.86,5.49-5.52,8.85-3.57.93.54-1.59,15.69-.61,15.23s.86-5.92,1.18-6.93a120.72,120.72,0,0,0,4.37-16.68A40.28,40.28,0,0,0,279.24,205.28Z" style="fill: rgb(38, 50, 56); transform-origin: 261.949px 214.8px;" id="el0uq4c38e9ivd" class="animable"></path><path d="M272.39,240.8c.05,0,.18.14.47.3a1.81,1.81,0,0,0,1.34.11c1.12-.32,2.15-2,2.33-3.85a6,6,0,0,0-.33-2.61,2.08,2.08,0,0,0-1.26-1.47.93.93,0,0,0-1.1.42c-.16.28-.1.49-.16.51s-.21-.19-.1-.61A1.15,1.15,0,0,1,274,233a1.32,1.32,0,0,1,1-.2,2.54,2.54,0,0,1,1.77,1.73,6,6,0,0,1,.44,2.92c-.21,2.07-1.4,3.95-2.92,4.28a2,2,0,0,1-1.63-.38C272.4,241.05,272.36,240.82,272.39,240.8Z" style="fill: rgb(235, 153, 110); transform-origin: 274.81px 237.272px;" id="elz1cwghsxm3n" class="animable"></path><path d="M272.33,191.73a33.6,33.6,0,0,1,3.68,5.21,42.27,42.27,0,0,1,3,6.23,44.54,44.54,0,0,1,2.3,8.16,40,40,0,0,1-.16,15.35,12.31,12.31,0,0,1-.33,1.36l-.33,1.22a16.86,16.86,0,0,1-.63,1.9c-.19.5-.33.89-.45,1.19a2.5,2.5,0,0,1-.17.41,2.5,2.5,0,0,1,.11-.43l.39-1.21a18.92,18.92,0,0,0,.58-1.91c.1-.38.2-.79.31-1.21a12.63,12.63,0,0,0,.3-1.37,40.71,40.71,0,0,0,.07-15.24,45.17,45.17,0,0,0-2.26-8.12,44.52,44.52,0,0,0-2.95-6.22l-.69-1.22-.68-1.05-.59-.91c-.19-.28-.38-.52-.54-.74l-.74-1A4.05,4.05,0,0,1,272.33,191.73Z" style="fill: rgb(69, 90, 100); transform-origin: 277.153px 212.245px;" id="elrc7jp0tpxg8" class="animable"></path><path d="M273.32,194.87s0,.11-.05.31a2.6,2.6,0,0,1-.41.83,5.64,5.64,0,0,1-2.83,1.83c-1.37.45-3,.85-4.85,1.26a45.54,45.54,0,0,1-6.07.89,30.06,30.06,0,0,1-6.14-.18,23.87,23.87,0,0,1-4.87-1.21,18.48,18.48,0,0,1-3-1.45,8.86,8.86,0,0,1-.77-.5,1.52,1.52,0,0,1-.26-.19,11.64,11.64,0,0,1,1.09.58,21,21,0,0,0,3.07,1.35,24.43,24.43,0,0,0,4.83,1.13,31,31,0,0,0,6.08.15,55,55,0,0,0,10.87-2,5.74,5.74,0,0,0,2.8-1.69A3.69,3.69,0,0,0,273.32,194.87Z" style="fill: rgb(69, 90, 100); transform-origin: 258.695px 197.47px;" id="eldofqa239f2u" class="animable"></path><path d="M271.46,191.3s0,.08-.17.21a5.25,5.25,0,0,1-.54.55,12.57,12.57,0,0,1-2.29,1.68,18.48,18.48,0,0,1-9,2.26,37.89,37.89,0,0,1-9.25-1.29c-1.15-.29-2.09-.55-2.73-.74a5.47,5.47,0,0,1-1-.32,6.66,6.66,0,0,1,1,.2l2.76.64a40.91,40.91,0,0,0,9.19,1.2,19,19,0,0,0,8.9-2.15A17.7,17.7,0,0,0,271.46,191.3Z" style="fill: rgb(69, 90, 100); transform-origin: 258.97px 193.65px;" id="el9a5806t0i3l" class="animable"></path><path d="M269.35,190.16a3.36,3.36,0,0,1-.73.25c-.48.15-1.17.33-2.05.51a33.12,33.12,0,0,1-13.83-.08c-.86-.19-1.56-.38-2-.53a3.64,3.64,0,0,1-.73-.26,3.88,3.88,0,0,1,.76.14c.48.12,1.18.27,2,.43a38.27,38.27,0,0,0,6.87.67,39.2,39.2,0,0,0,6.87-.59c.87-.15,1.58-.29,2.06-.4A3.75,3.75,0,0,1,269.35,190.16Z" style="fill: rgb(69, 90, 100); transform-origin: 259.68px 190.83px;" id="elh1tlifi1dn9" class="animable"></path><path d="M255.57,181.36a3.55,3.55,0,0,1-.25.73,20.88,20.88,0,0,1-.87,1.94,29,29,0,0,1-9.07,10.48c-.74.52-1.35.9-1.79,1.15a4.09,4.09,0,0,1-.69.35,3.59,3.59,0,0,1,.63-.46c.41-.27,1-.68,1.71-1.22a31.61,31.61,0,0,0,9-10.41c.43-.78.75-1.42,1-1.87A3.53,3.53,0,0,1,255.57,181.36Z" style="fill: rgb(69, 90, 100); transform-origin: 249.235px 188.685px;" id="elw4l6lbz76hc" class="animable"></path><path d="M218.88,203.53s.05-.1.18-.27.31-.41.56-.72a33.26,33.26,0,0,1,2.26-2.52,26.49,26.49,0,0,1,3.83-3.24,23.85,23.85,0,0,1,2.55-1.52,22.77,22.77,0,0,1,3-1.21,27.68,27.68,0,0,1,11-1.2,24.19,24.19,0,0,1,3.34.54c.39.08.69.18.89.23a1,1,0,0,1,.3.11s-.43-.07-1.21-.22a30.22,30.22,0,0,0-3.33-.44,28.65,28.65,0,0,0-10.93,1.28,23.94,23.94,0,0,0-9.28,5.83c-1,1-1.79,1.84-2.31,2.44l-.61.68C219,203.46,218.89,203.54,218.88,203.53Z" style="fill: rgb(69, 90, 100); transform-origin: 232.835px 198.131px;" id="elrdjpoeg5ip" class="animable"></path><path d="M226.63,192.44a5.05,5.05,0,0,1,.79-.53,11,11,0,0,1,1-.54c.38-.2.81-.44,1.32-.65a16.51,16.51,0,0,1,1.65-.68c.6-.24,1.26-.43,1.95-.64a28.62,28.62,0,0,1,4.61-.87,29.56,29.56,0,0,1,4.69,0c.72.07,1.4.13,2,.25s1.22.22,1.75.34,1,.26,1.42.38.77.24,1.05.35a5.87,5.87,0,0,1,.88.36,5.87,5.87,0,0,1-.92-.24c-.29-.09-.64-.2-1.06-.3s-.89-.24-1.42-.33-1.11-.23-1.74-.3-1.31-.16-2-.22a30.26,30.26,0,0,0-4.64.06,30.78,30.78,0,0,0-4.57.84c-.68.2-1.34.38-1.93.61s-1.15.42-1.65.63-.94.42-1.33.6-.72.35-1,.5A7.88,7.88,0,0,1,226.63,192.44Z" style="fill: rgb(69, 90, 100); transform-origin: 238.185px 190.438px;" id="elm8z1cldxohr" class="animable"></path><path d="M231.47,228.29c.05,0-.11.45-.62.94a4,4,0,0,1-2.49,1.08,4,4,0,0,1-2.6-.76c-.57-.42-.78-.81-.73-.85s.36.24.92.54a4.25,4.25,0,0,0,4.67-.3C231.14,228.57,231.4,228.24,231.47,228.29Z" style="fill: rgb(235, 153, 110); transform-origin: 228.251px 229.301px;" id="elijshaxr7tte" class="animable"></path><path d="M254.46,227.59s-.09.4-.51.85a4.15,4.15,0,0,1-4.51,1c-.57-.24-.85-.51-.82-.56a7.53,7.53,0,0,0,3.11.25A7.66,7.66,0,0,0,254.46,227.59Z" style="fill: rgb(235, 153, 110); transform-origin: 251.539px 228.657px;" id="el713ie71d4cs" class="animable"></path><path d="M236.67,209.48c.05,0,.31.13.52.56a2.42,2.42,0,0,1,.1,1.85,2.46,2.46,0,0,1-1.26,1.36c-.44.19-.75.16-.76.09s.24-.17.58-.41a2.49,2.49,0,0,0,1-2.76C236.75,209.77,236.61,209.53,236.67,209.48Z" style="fill: rgb(235, 153, 110); transform-origin: 236.349px 211.437px;" id="el45ky6o7l7ha" class="animable"></path><path d="M240.05,213.63s-.32-.09-.6-.47a2.74,2.74,0,0,1-.48-1.78,2.78,2.78,0,0,1,.7-1.69c.33-.35.62-.45.65-.39a3.73,3.73,0,0,0-.27,4.33Z" style="fill: rgb(235, 153, 110); transform-origin: 239.641px 211.457px;" id="elv1qj0kihue" class="animable"></path><path d="M209.18,404.62s-31.49-13.8-40.7-14.1c-7.86-.26-21.37,3.28-25.25,11.62s-2.69,19.7,0,24,31.07,17.9,44.66,23.14,56.49,16.89,56.49,16.89l60.18-3.89S322.33,447,325,443.87s20.88-20.14,22.82-22.86,7.21-19.6,1.39-26.2-9.66-10.77-18-10.18-14.09,1.59-24.61,9.28c-8.1,5.92-11.38,8.18-19.6,10.06s-24.34,6.65-37.42,5.59S209.18,404.62,209.18,404.62Z" style="fill: rgb(38, 50, 56); transform-origin: 246.307px 425.372px;" id="elnrhad1l7ov" class="animable"></path><path d="M179.64,402.8l.27.11.77.36,2.93,1.43,10.72,5.35c4.52,2.29,9.89,5,15.82,8.12l19.24,10.2,26,13.82.19.1-.1.19-8.58,17.18c-1,2-1.84,3.66-2.42,4.79l-.64,1.26c-.15.28-.22.43-.23.43a2.2,2.2,0,0,1,.17-.46c.14-.32.34-.74.58-1.28.55-1.15,1.33-2.78,2.31-4.85,2.05-4.19,4.94-10.13,8.43-17.26l.09.28c-7.52-4-16.47-8.69-26.06-13.76-6.82-3.62-13.34-7-19.22-10.23s-11.27-5.88-15.76-8.21l-10.65-5.5-2.89-1.51-.75-.4C179.72,402.86,179.63,402.81,179.64,402.8Z" style="fill: rgb(69, 90, 100); transform-origin: 217.61px 434.47px;" id="elnmo6tn389pe" class="animable"></path><path d="M297.19,405.73l-.21.16-.66.44c-.58.39-1.44.94-2.56,1.63-2.25,1.38-5.53,3.35-9.76,5.43a79.64,79.64,0,0,1-15.48,5.88,62.36,62.36,0,0,1-9.65,1.71,72,72,0,0,1-10.52.16,95.46,95.46,0,0,1-20-3.53,163.88,163.88,0,0,1-15.66-5.39c-4.39-1.73-7.89-3.24-10.31-4.28l-2.77-1.23-.72-.33a.84.84,0,0,1-.24-.13l.26.08.74.29,2.81,1.13c2.44,1,6,2.45,10.36,4.14s9.67,3.6,15.66,5.27a96.23,96.23,0,0,0,19.88,3.47,70.92,70.92,0,0,0,10.44-.15,62.69,62.69,0,0,0,9.58-1.66,81.89,81.89,0,0,0,15.44-5.75c4.24-2,7.54-4,9.82-5.28l2.61-1.54c.27-.17.5-.3.68-.4S297.18,405.72,297.19,405.73Z" style="fill: rgb(69, 90, 100); transform-origin: 247.92px 413.494px;" id="elovgg1vowc7e" class="animable"></path><path d="M254.43,437.56a3.78,3.78,0,0,1-.22-1c-.11-.63-.21-1.56-.3-2.7a66.35,66.35,0,0,1,.07-9c.23-3.49.53-6.64.71-8.92a34.11,34.11,0,0,1,.35-3.69,3.74,3.74,0,0,1,.06,1c0,.64,0,1.57,0,2.71-.09,2.29-.34,5.45-.57,8.93s-.3,6.64-.21,8.92S254.51,437.54,254.43,437.56Z" style="fill: rgb(69, 90, 100); transform-origin: 254.45px 424.905px;" id="elsv9ti1thncb" class="animable"></path><path d="M284.06,406.63c0,.08-1.22.45-3.19,1.16a65.26,65.26,0,0,0-14.51,7.31c-1.74,1.16-2.78,1.93-2.83,1.87s.21-.25.66-.64,1.11-.91,2-1.53a51.23,51.23,0,0,1,7-4.27,49.8,49.8,0,0,1,7.6-3.08c1-.32,1.82-.54,2.4-.67A2.86,2.86,0,0,1,284.06,406.63Z" style="fill: rgb(69, 90, 100); transform-origin: 273.792px 411.802px;" id="el583806fqnjb" class="animable"></path><path d="M320,390.82a4.91,4.91,0,0,1-.72.48l-2.11,1.3c-.93.55-2,1.26-3.32,2.09s-2.74,1.77-4.32,2.87c-3.19,2.14-6.89,4.85-11,7.87s-8.51,6.46-13.15,10.05-9.08,7-13.16,10-7.81,5.72-11,7.85c-1.59,1.1-3.05,2-4.35,2.85s-2.41,1.52-3.34,2l-2.15,1.24a4.71,4.71,0,0,1-.77.4,6.91,6.91,0,0,1,.72-.49l2.09-1.32c.92-.55,2-1.27,3.3-2.12s2.73-1.79,4.3-2.9c3.17-2.17,6.86-4.89,10.94-7.93s8.49-6.48,13.13-10.08,9.09-7,13.18-10,7.83-5.68,11.06-7.78c1.59-1.09,3.07-2,4.37-2.82s2.42-1.5,3.37-2l2.16-1.21A5.34,5.34,0,0,1,320,390.82Z" style="fill: rgb(69, 90, 100); transform-origin: 285.305px 415.32px;" id="elivnryqr3uvg" class="animable"></path><path d="M345,412.42a.76.76,0,0,1-.05.23c-.06.17-.12.38-.21.64a22,22,0,0,1-.9,2.42,39.09,39.09,0,0,1-4.73,8.25,42.8,42.8,0,0,1-4.31,5,47.21,47.21,0,0,1-5.73,4.91,57.14,57.14,0,0,1-15.38,7.83c-5.81,2-11.5,3.33-16.64,4.64s-9.8,2.39-13.72,3.22-7.14,1.36-9.36,1.68c-1.11.16-2,.28-2.56.34l-.67.07h-.23s.07,0,.22-.05l.66-.12L274,451c2.21-.38,5.4-1,9.31-1.85s8.55-2,13.68-3.32,10.82-2.67,16.59-4.66a57.41,57.41,0,0,0,15.27-7.73,48.27,48.27,0,0,0,5.72-4.83,43.3,43.3,0,0,0,4.31-4.89,41.37,41.37,0,0,0,4.84-8.12c.48-1,.77-1.83,1-2.38l.25-.62A.93.93,0,0,1,345,412.42Z" style="fill: rgb(69, 90, 100); transform-origin: 307.755px 432.035px;" id="el3f8vhz06fpf" class="animable"></path><path d="M347.86,412.13a6.07,6.07,0,0,1-.5,2,19.62,19.62,0,0,1-2.21,4.36,20.38,20.38,0,0,1-3.2,3.68,6.38,6.38,0,0,1-1.63,1.2,29.94,29.94,0,0,0,7.54-11.2Z" style="fill: rgb(69, 90, 100); transform-origin: 344.09px 417.75px;" id="elgot3stm3jii" class="animable"></path><path d="M240.75,464.48a3.76,3.76,0,0,1,.12-1c.11-.66.3-1.6.57-2.77a72.78,72.78,0,0,1,6.48-17.43c.55-1.05,1-1.9,1.37-2.47a4.71,4.71,0,0,1,.58-.86,36.09,36.09,0,0,1-1.63,3.49c-1,2.14-2.38,5.13-3.64,8.53s-2.19,6.54-2.81,8.83S240.82,464.5,240.75,464.48Z" style="fill: rgb(69, 90, 100); transform-origin: 245.31px 452.215px;" id="elj33rqqmtzrf" class="animable"></path><path d="M165.64,400a5.5,5.5,0,0,1,1.91-.67,14.2,14.2,0,0,1,9.55,1.31,5.65,5.65,0,0,1,1.66,1.15,22.84,22.84,0,0,0-6.39-2.14A23,23,0,0,0,165.64,400Z" style="fill: rgb(69, 90, 100); transform-origin: 172.2px 400.404px;" id="el0g5j795alnne" class="animable"></path><path d="M190.29,449.71c-2.37,0-5.34,1.83-6.85,3.65a23,23,0,0,0-3.32,6.25c-.7,1.72-1.38,3.65-.69,5.37a5.07,5.07,0,0,0,4.15,2.82,17.71,17.71,0,0,0,5.22-.42c18.06-3,36.73,1.41,54.84-1.33Z" style="fill: rgb(69, 90, 100); transform-origin: 211.391px 458.776px;" id="ely0p4v8q6b9" class="animable"></path><path d="M190.17,467.08s.27-.34.65-1a6.57,6.57,0,0,0,.88-3,6.16,6.16,0,0,0-1.56-4.28,5.32,5.32,0,0,0-2.21-1.54,2.9,2.9,0,0,0-2.69.3,1.73,1.73,0,0,0-.63,2.34,1.69,1.69,0,0,0,1,.75,1.27,1.27,0,0,0,1.11-.24,2.3,2.3,0,0,0,.73-2.13,8.89,8.89,0,0,0-.53-2.12,14.53,14.53,0,0,0-2.26-3.75,3.8,3.8,0,0,1,.88.82,10.26,10.26,0,0,1,1.72,2.8,9.46,9.46,0,0,1,.61,2.21,2.73,2.73,0,0,1-.86,2.54,1.74,1.74,0,0,1-1.52.34,2.17,2.17,0,0,1-1.28-1,2,2,0,0,1-.24-1.65,2.66,2.66,0,0,1,1-1.36,3.37,3.37,0,0,1,3.15-.36,5.77,5.77,0,0,1,2.4,1.7,6.47,6.47,0,0,1,1.56,4.6,6.31,6.31,0,0,1-1.07,3.11A2.9,2.9,0,0,1,190.17,467.08Z" style="fill: #906464; transform-origin: 187.99px 459.745px;" id="elf49wwhr75u6" class="animable"></path><path d="M202.54,453.25a4.82,4.82,0,0,1,1,2,9.47,9.47,0,0,1-2.88,10.14,5.06,5.06,0,0,1-2,1.18c0-.07.73-.49,1.72-1.44a10,10,0,0,0,2.78-9.78C202.9,454.05,202.47,453.29,202.54,453.25Z" style="fill: #906464; transform-origin: 201.331px 459.91px;" id="elvsrl5moymxo" class="animable"></path><path d="M212.6,456.38s-.26.22-.65.66a4.51,4.51,0,0,0-1,2.21,3.67,3.67,0,0,0,1,3.28,1.62,1.62,0,0,0,1.78.42,1.7,1.7,0,0,0,.92-1.72,2,2,0,0,0-1.35-1.5,2.29,2.29,0,0,0-1.94.27,3.36,3.36,0,0,0-1.48,3.05,6,6,0,0,0,.64,2.38,6.16,6.16,0,0,1,.41.84s-.26-.23-.58-.75a5.53,5.53,0,0,1-.83-2.46,4.23,4.23,0,0,1,.26-1.81,3.32,3.32,0,0,1,1.34-1.65,2.76,2.76,0,0,1,2.34-.34,2.44,2.44,0,0,1,1.69,1.9,2.17,2.17,0,0,1-1.21,2.24,2.11,2.11,0,0,1-2.31-.52,4,4,0,0,1-1-3.7,4.34,4.34,0,0,1,1.25-2.27A2,2,0,0,1,212.6,456.38Z" style="fill: #906464; transform-origin: 212.338px 461.325px;" id="el94i7cj8ieb4" class="animable"></path><path d="M222.92,467.08c0-.06.29-.34.72-.87a5.28,5.28,0,0,0,1.12-2.33,5.08,5.08,0,0,0-.22-2.57c-.23-.64-.46-1-.4-1.05s.4.26.73.91a4.5,4.5,0,0,1,.39,2.8,4.7,4.7,0,0,1-1.36,2.48C223.37,467,223,467.13,222.92,467.08Z" style="fill: #906464; transform-origin: 224.127px 463.672px;" id="elow8924nuan" class="animable"></path><path d="M322.41,453c-2.86-3.93-8.37-4.75-13.23-4.49a47.76,47.76,0,0,0-11.31,2c-1.92.59-3.91,1.31-5.88.94-1.73-.32-3.21-1.43-4.89-1.92-3.07-.9-6.29.36-9.43.9-8.05,1.39-16.08-1.94-23.57-5.2l-8.92,17.36c8.55,3.79,16.12,5.5,25.1,7.69,8,1.95,16.32,1.27,24.52,1.57,4.69.16,9.4.65,14.06.08s9.37-2.35,12.41-5.92S325.17,456.84,322.41,453Z" style="fill: rgb(69, 90, 100); transform-origin: 284.629px 458.714px;" id="el7xx73izwtf2" class="animable"></path><path d="M255,466.25s-.08-.09-.17-.29a8.62,8.62,0,0,1-.35-.9,10.31,10.31,0,0,1,1.16-8.51,5.81,5.81,0,0,1,2.29-2.18,3.37,3.37,0,0,1,3.41.15,1.8,1.8,0,0,1,.7,1.72,1.09,1.09,0,0,1-.67.76,1.85,1.85,0,0,1-.92.1,5.93,5.93,0,0,1-2.89-1.29,5.86,5.86,0,0,1-2.19-4.72,5.93,5.93,0,0,1,1.17-3.34,4.39,4.39,0,0,1,.65-.71c.17-.14.27-.21.28-.2s-.32.34-.77,1a6.09,6.09,0,0,0-1,3.24,5.51,5.51,0,0,0,2.12,4.34,5.44,5.44,0,0,0,2.66,1.16c.48.07.95-.09,1-.48a1.33,1.33,0,0,0-.53-1.21,2.93,2.93,0,0,0-2.87-.09,5.4,5.4,0,0,0-2.12,2,10.35,10.35,0,0,0-1.62,4.78A13,13,0,0,0,255,466.25Z" style="fill: #906464; transform-origin: 258.049px 456.545px;" id="elrl23ubkyb9c" class="animable"></path><path d="M269.07,469.13s.32,0,.86-.18a4.7,4.7,0,0,0,2-1.15,5.23,5.23,0,0,0,1.54-3,7.9,7.9,0,0,0-.57-4.16,15.61,15.61,0,0,0-2.26-3.66,15.18,15.18,0,0,1-2.11-2.94,3.32,3.32,0,0,1-.19-2.45c.2-.56.48-.77.49-.75a6.34,6.34,0,0,0-.3.81,3.31,3.31,0,0,0,.33,2.24,16.45,16.45,0,0,0,2.15,2.8,15,15,0,0,1,2.36,3.76,8,8,0,0,1,.56,4.43,5.39,5.39,0,0,1-1.76,3.19,4.38,4.38,0,0,1-2.21,1.08A1.68,1.68,0,0,1,269.07,469.13Z" style="fill: #906464; transform-origin: 271.109px 460.02px;" id="elu0f7x08o5m" class="animable"></path><path d="M292.33,451.51s.08.13.18.41a11.57,11.57,0,0,1,.34,1.23,15.68,15.68,0,0,1,.32,4.68,11.53,11.53,0,0,1-.65,3.2,5.68,5.68,0,0,1-2.36,3,5.39,5.39,0,0,1-4.13.54,4.39,4.39,0,0,1-2-1.12,2.75,2.75,0,0,1-.85-2.22,2,2,0,0,1,1.54-1.8,2.57,2.57,0,0,1,2.25.52,4.62,4.62,0,0,1,1.5,3.89,7.53,7.53,0,0,1-3.79,5.72,15.35,15.35,0,0,1-4.39,1.67c-.54.13-1,.21-1.25.26a1.47,1.47,0,0,1-.44,0,15.74,15.74,0,0,1,1.64-.49,16.74,16.74,0,0,0,4.25-1.79,8.18,8.18,0,0,0,2.29-2.13,6.51,6.51,0,0,0,1.22-3.31,4.15,4.15,0,0,0-1.34-3.47,2,2,0,0,0-1.81-.42,1.5,1.5,0,0,0-1.16,1.36,2.22,2.22,0,0,0,.7,1.81,3.86,3.86,0,0,0,1.74,1,5,5,0,0,0,3.77-.47,5.28,5.28,0,0,0,2.19-2.7,11.73,11.73,0,0,0,.7-3.08,17.47,17.47,0,0,0-.17-4.62C292.47,452.1,292.29,451.52,292.33,451.51Z" style="fill: #906464; transform-origin: 285.911px 461.508px;" id="elmocp81r03lj" class="animable"></path><path d="M300.63,471.58s-.14-.08-.37-.27a9.76,9.76,0,0,1-.91-.95,10.29,10.29,0,0,1-2.09-4.34,10.15,10.15,0,0,1,1-7,10.63,10.63,0,0,1,2.77-3.25,6.65,6.65,0,0,1,4.29-1.62,3.08,3.08,0,0,1,3,3.22,2.33,2.33,0,0,1-1.45,1.78,3.19,3.19,0,0,1-2.17.1,3.62,3.62,0,0,1-2.32-3.06,5.29,5.29,0,0,1,.64-3.32,8.87,8.87,0,0,1,3.62-3.17,11.07,11.07,0,0,1,1.18-.56c.28-.12.43-.17.43-.15s-.55.31-1.52.88a9.1,9.1,0,0,0-3.39,3.18,5,5,0,0,0-.55,3.08,3.25,3.25,0,0,0,2,2.68,2.81,2.81,0,0,0,1.85-.11,1.8,1.8,0,0,0,1.14-1.4,2.57,2.57,0,0,0-2.54-2.64,6.2,6.2,0,0,0-4,1.5,10.36,10.36,0,0,0-2.66,3.09,9.79,9.79,0,0,0-1.09,6.72,10.65,10.65,0,0,0,1.89,4.29C300.19,471.14,300.66,471.55,300.63,471.58Z" style="fill: #906464; transform-origin: 302.676px 460.283px;" id="elrswqsoip2e" class="animable"></path><path d="M316.87,449.68a3.36,3.36,0,0,1,.5.88,14.27,14.27,0,0,1,.91,2.59,16.94,16.94,0,0,1-4.89,16.69,15.21,15.21,0,0,1-2.18,1.69,3.71,3.71,0,0,1-.89.47c-.05-.08,1.2-.8,2.82-2.42a17.55,17.55,0,0,0,4.79-16.35C317.44,451,316.78,449.72,316.87,449.68Z" style="fill: #906464; transform-origin: 314.571px 460.84px;" id="elq8cvyvh10gn" class="animable"></path><path d="M210.9,231.33s2.58-2.7,2.79-3.88c.75-4.11,2-6.2,4.11-7.46,0,0,2.73,4.63,3,12.52.2,5.64.3,9.89.3,9.89s2.83,6.71,1.49,10.13-3.16,2.23-5.68,1.19-3.4-5.06-3.4-5.06l-2.63-.23Z" style="fill: rgb(255, 190, 157); transform-origin: 216.915px 237.394px;" id="elxdf92i1wcv" class="animable"></path><path d="M217.8,220s.1.1.23.3a8.24,8.24,0,0,1,.51.93,18.78,18.78,0,0,1,1.33,3.67,43.38,43.38,0,0,1,1,5.69c.11,1.08.23,2.21.35,3.39a31.32,31.32,0,0,1,.16,3.66,30.19,30.19,0,0,0,.14,3.61,15.93,15.93,0,0,0,.8,3.25c.34,1,.69,2,.91,3a6.76,6.76,0,0,1,.17,2.73,8,8,0,0,1-1.35,3.67c-.57.77-1.17.87-1.16.84a3,3,0,0,0,1-1,8.48,8.48,0,0,0,1.15-3.59c.24-1.61-.47-3.45-1.17-5.5a16.55,16.55,0,0,1-.86-3.33,29.71,29.71,0,0,1-.15-3.68,30.67,30.67,0,0,0-.15-3.62c-.11-1.17-.21-2.3-.32-3.38a46.66,46.66,0,0,0-.87-5.66,22.88,22.88,0,0,0-1.15-3.67A13.07,13.07,0,0,1,217.8,220Z" style="fill: rgb(235, 153, 110); transform-origin: 220.634px 237.372px;" id="ele8bmbe7jky7" class="animable"></path><path d="M215.93,232.18a8.78,8.78,0,0,1-3-.29,9,9,0,0,1-2.93-.8,17.79,17.79,0,0,1,6,1.09Z" style="fill: rgb(235, 153, 110); transform-origin: 213px 231.648px;" id="elr3fua9q2ra" class="animable"></path><path d="M250.52,410.46a1.81,1.81,0,0,1-.51,0l-1.43-.16c-1.24-.16-3-.4-5.25-.71-4.43-.64-10.55-1.58-17.27-2.74s-12.81-2.31-17.2-3.19c-2.19-.44-4-.81-5.19-1.08l-1.4-.33a1.56,1.56,0,0,1-.48-.15,1.72,1.72,0,0,1,.5.05l1.42.23,5.22.92,17.21,3,17.24,2.88,5.23.88,1.42.25A2,2,0,0,1,250.52,410.46Z" style="fill: rgb(69, 90, 100); transform-origin: 226.155px 406.288px;" id="elwjq2smfc82n" class="animable"></path><path d="M277.87,218.25s2.8,7,2.78,9.75-1.89,9.71-1.89,9.71Z" style="fill: rgb(255, 190, 157); transform-origin: 279.26px 227.98px;" id="eldwg9ktu58aq" class="animable"></path><path d="M283.14,239.29l-3.9-.56s-1-10.3-.93-11.91c.21-3.25-.52-12.65-1.78-13.88-2.66-2.59-2.07,13.88-2.07,13.88,0-4.32-.25-9.8-.87-10.93-1.07-1.93-2.3.21-2.3.21s-2.17,16.77-2.33,20.37-.44,13.61.26,15.59-.11,2.76,2.24,2.61,15.35-1.74,15.35-1.74l-2.88-13.82" style="fill: rgb(255, 190, 157); transform-origin: 277.789px 233.676px;" id="elozzms4yx85" class="animable"></path><path d="M271.29,216.1a9.43,9.43,0,0,1-.07,1.66c-.08,1.06-.22,2.61-.43,4.51-.41,3.8-1.14,9-1.86,14.8-.35,2.89-.65,5.65-.85,8.16s-.48,4.81,0,6.61a2.79,2.79,0,0,0,1.45,1.88,6.29,6.29,0,0,0,1.78.67,10.42,10.42,0,0,0,1.63.18,1,1,0,0,1-.43.08,4.67,4.67,0,0,1-1.24-.06,6,6,0,0,1-1.88-.62,3.53,3.53,0,0,1-1-.76,3.2,3.2,0,0,1-.65-1.27c-.58-1.91-.29-4.23-.16-6.74s.46-5.29.81-8.19c.72-5.79,1.51-11,2-14.79.25-1.83.45-3.34.6-4.48A10.81,10.81,0,0,1,271.29,216.1Z" style="fill: rgb(235, 153, 110); transform-origin: 270.166px 235.383px;" id="el2p3bvff3owx" class="animable"></path><path d="M274,231.57c-.12-.1.31-.74.43-1.64s-.09-1.63,0-1.69.62.7.46,1.77S274.07,231.68,274,231.57Z" style="fill: rgb(235, 153, 110); transform-origin: 274.449px 229.91px;" id="elv6hwvwcv82p" class="animable"></path><path d="M274.29,219a10,10,0,0,1,.54,3.79,10.18,10.18,0,0,1-.42,3.81,23.15,23.15,0,0,1-.1-3.8A25.24,25.24,0,0,1,274.29,219Z" style="fill: rgb(235, 153, 110); transform-origin: 274.545px 222.8px;" id="elclwztjt09bj" class="animable"></path><path d="M278.37,229a33.87,33.87,0,0,1-.45-5.26,21.06,21.06,0,0,1,.07-5.28,37.09,37.09,0,0,1,.45,5.26A22.22,22.22,0,0,1,278.37,229Z" style="fill: rgb(235, 153, 110); transform-origin: 278.176px 223.73px;" id="ellpss02tucfd" class="animable"></path><path d="M284.32,239.46a18.07,18.07,0,0,1-4.4.16,19,19,0,0,1-4.39-.37,18.5,18.5,0,0,1,4.4-.15A19.38,19.38,0,0,1,284.32,239.46Z" style="fill: rgb(235, 153, 110); transform-origin: 279.925px 239.36px;" id="ela11h8wvfos7" class="animable"></path></g><defs>     <filter id="active" height="200%">         <feMorphology in="SourceAlpha" result="DILATED" operator="dilate" radius="2"></feMorphology>                <feFlood flood-color="#32DFEC" flood-opacity="1" result="PINK"></feFlood>        <feComposite in="PINK" in2="DILATED" operator="in" result="OUTLINE"></feComposite>        <feMerge>            <feMergeNode in="OUTLINE"></feMergeNode>            <feMergeNode in="SourceGraphic"></feMergeNode>        </feMerge>    </filter>    <filter id="hover" height="200%">        <feMorphology in="SourceAlpha" result="DILATED" operator="dilate" radius="2"></feMorphology>                <feFlood flood-color="#ff0000" flood-opacity="0.5" result="PINK"></feFlood>        <feComposite in="PINK" in2="DILATED" operator="in" result="OUTLINE"></feComposite>        <feMerge>            <feMergeNode in="OUTLINE"></feMergeNode>            <feMergeNode in="SourceGraphic"></feMergeNode>        </feMerge>            <feColorMatrix type="matrix" values="0   0   0   0   0                0   1   0   0   0                0   0   0   0   0                0   0   0   1   0 "></feColorMatrix>    </filter></defs></svg>